<svg width="100" height="130" xmlns="http://www.w3.org/2000/svg">

 <g>
  <title>background</title>
  <rect fill="none" id="canvas_background" height="132" width="102" y="-1" x="-1"/>
 </g>
 <g>
  <title>Layer 1</title>
  <g id="svg_1">
   <path fill='#0000ff' id="svg_2" d="m67.5,54c4.4,2.6 7.3,6.9 8.7,12.5c0.8,3.2 1.1,6.6 1.1,10.3c0.1,20.4 -11.9,38.1 -31.5,43c-8.4,2.1 -15.5,1.3 -20.8,-1.9l-4.6,-2.8c-3.5,-2.1 -6.3,-5.3 -7.9,-9.2l4.6,2.8c1.4,3.2 3.3,5.7 5.6,7.7c4.9,1.9 11.2,2.2 18.3,0.4c19.4,-4.8 31.4,-22.4 31.5,-42.8c0,-3.7 -0.5,-7.1 -1.2,-10.1c-1.2,-4.7 -3.2,-8.5 -6.3,-11.3c-6.8,-2.6 -16.3,-1.1 -20.5,-0.1c-10.7,2.7 -21.5,8.3 -22.2,8.7l-4.8,-2.9l5.6,-45.5l46.8,-11.7l4.6,2.8l-46.8,11.7l-4.7,40.2c4.2,-2 10.6,-4.5 16.9,-6.1c7,-1.7 15.4,-3.1 22.6,1.2l5,3.1z"/>
  </g>
  <g id="svg_3">
   <path fill='#0000ff' id="svg_4" d="m77.5,59.9c4.4,2.6 7.3,6.9 8.7,12.5c0.8,3.2 1.1,6.6 1.1,10.3c0.1,20.4 -11.9,38.1 -31.5,43c-8.4,2.1 -15.5,1.3 -20.8,-1.9l-4.6,-2.8c-3.5,-2.1 -6.3,-5.3 -7.9,-9.2l4.6,2.8c1.4,3.2 3.3,5.7 5.6,7.7c4.9,1.9 11.2,2.2 18.3,0.4c19.4,-4.8 31.4,-22.4 31.5,-42.8c0,-3.7 -0.5,-7.1 -1.2,-10.1c-1.2,-4.7 -3.2,-8.5 -6.3,-11.3c-6.8,-2.6 -16.3,-1.1 -20.5,-0.1c-10.7,2.7 -21.5,8.3 -22.2,8.7l-4.8,-2.9l5.6,-45.5l46.8,-11.7l4.6,2.8l-46.8,11.7l-4.7,40.2c4.2,-2 10.6,-4.5 16.9,-6.1c7,-1.7 15.4,-3.1 22.6,1.2l5,3.1z"/>
  </g>
 </g>
</svg>