<svg width="100" height="130" xmlns="http://www.w3.org/2000/svg">

 <g>
  <title>background</title>
  <rect fill="none" id="canvas_background" height="132" width="102" y="-1" x="-1"/>
 </g>
 <g>
  <title>Layer 1</title>
  <g id="svg_1">
   <path fill='#0000ff' id="svg_2" d="m63.400001,84.099999l0,30.7l-4.8,-2.9l0.1,-26.6l-44.8,11.2l-4.8,-2.9l49.7,-88.8l4.8,2.9l0,72.4l11.6,-2.9l4.8,2.9l-16.6,4zm-4.7,-67.8l-42.2,75.5l42,-10.5l0.2,-65z"/>
  </g>
  <g id="svg_3">
   <path fill='#0000ff' id="svg_4" d="m73.300001,90.299999l0,30.7l-4.8,-2.9l0.1,-26.6l-44.8,11.2l-4.8,-2.9l49.7,-88.8l4.8,2.9l0,72.4l11.6,-2.9l4.8,2.9l-16.6,4zm-4.6,-67.8l-42.2,75.5l42,-10.5l0.2,-65z"/>
  </g>
 </g>
</svg>