<?xml version="1.0" encoding="utf-8"?>
<!-- Generator: Adobe Illustrator 22.1.0, SVG Export Plug-In . SVG Version: 6.00 Build 0)  -->
<svg version="1.1" id="Слой_1" xmlns="http://www.w3.org/2000/svg" xmlns:xlink="http://www.w3.org/1999/xlink" x="0px" y="0px"
	 viewBox="0 0 894.1 445.6" style="enable-background:new 0 0 894.1 445.6;" xml:space="preserve">
<g>
	<path d="M71.3,354.1l-4.8-2.9l0-96.4C61,263.4,53.8,271.8,46,278l-4.8-2.9c10.2-8.1,19.4-20.1,25.4-31.1l4.8,2.9L71.3,354.1z"/>
	<path d="M150.5,232c4.2,2.5,7.3,6.9,8.9,13.2c0.7,2.8,1.1,6,1.1,9.8c-0.1,14-7.9,27.4-26.5,42.1c-20.2,15.8-29.3,31.1-32.4,45.3
		l55-13.7l4.8,2.9l-60.6,15.1l-4.8-2.9c2.2-15.2,11.1-32.2,33.4-49.6c18.8-14.7,26.3-28.9,26.3-42.1c0-3.7-0.3-7.2-1-10
		c-1.3-5.1-3.7-8.8-6.7-11.3c-4.4-1.9-9.8-2-15.6-0.6c-15.1,3.8-25.1,13.7-29.9,27.2l-4.6-2.8c4.8-13.5,14.6-23.4,29.7-27.1
		c7-1.7,13.3-1.3,18.1,1.6L150.5,232z"/>
	<path d="M227.4,212.5c3.5,2.1,6,5.6,7.2,10.3c0.5,2.1,0.7,4.5,0.8,6.9c0,12.7-6.5,23.8-19.9,30.6c3.6,0.4,6.7,1.3,9.1,2.8l4.8,2.9
		c3.9,2.4,6.2,6.1,7.4,11.2c0.7,2.8,1.1,6,1.1,9.8c0.1,17.5-13.1,30.2-28.9,34.2c-9.5,2.4-16.6,1.9-22.3-1.5l-4.8-2.9
		c-3.1-1.8-5.8-4.5-7.6-8l4.8,2.7c1.4,2.6,3.1,4.8,5.2,6.5c5.2,2.1,11.9,2.2,20,0.2c15.9-4,29-16.7,28.9-34c0-3.7-0.3-7-1-10
		c-1-4-2.8-7.3-5.6-9.6c-5.6-2.1-13.4-2.1-24.2,0.6l-4.8-2.9c21.9-5.5,33-19.2,33-35.6c-0.1-2.6-0.3-4.8-0.8-6.9
		c-0.9-3.7-2.6-6.6-4.9-8.6c-4.1-1.6-9.5-1.7-15.8-0.1c-13.1,3.3-21.9,11.6-26.7,22.1l-4.6-2.8c4.8-10.5,13.4-18.8,26.5-22
		c7.5-1.9,13.7-1.6,18.3,1.2L227.4,212.5z"/>
	<path d="M309,264.1l0,30.7l-4.8-2.9l0.1-26.6l-44.8,11.2l-4.8-2.9l49.7-88.8l4.8,2.9l0,72.4l11.6-2.9l4.8,2.9L309,264.1z
		 M304.3,196.3l-42.2,75.5l42-10.5L304.3,196.3z"/>
	<path d="M392.5,215c4.4,2.6,7.3,6.9,8.7,12.5c0.8,3.2,1.1,6.6,1.1,10.3c0.1,20.4-11.9,38.1-31.5,43c-8.4,2.1-15.5,1.3-20.8-1.9
		l-4.6-2.8c-3.5-2.1-6.3-5.3-7.9-9.2l4.6,2.8c1.4,3.2,3.3,5.7,5.6,7.7c4.9,1.9,11.2,2.2,18.3,0.4c19.4-4.8,31.4-22.4,31.5-42.8
		c0-3.7-0.5-7.1-1.2-10.1c-1.2-4.7-3.2-8.5-6.3-11.3c-6.8-2.6-16.3-1.1-20.5-0.1c-10.7,2.7-21.5,8.3-22.2,8.7l-4.8-2.9l5.6-45.5
		l46.8-11.7l4.6,2.8l-46.8,11.7l-4.7,40.2c4.2-2,10.6-4.5,16.9-6.1c7-1.7,15.4-3.1,22.6,1.2L392.5,215z"/>
	<path d="M474.8,151.9c3.1,1.8,5.7,4.9,7.8,9l-4.8-2.9c-1.5-3.2-3.5-5.6-5.6-7.4c-4.1-1.6-8.8-1.7-14.1-0.4
		c-21.2,5.3-32,29.2-33,63.3c4.5-11,13.6-20.9,27.2-24.3c7.9-2,14.2-1.1,19,1.8l4.6,2.8c5,2.8,8.3,8,9.8,14.1c0.7,3,1,6.1,1,9.2
		c0,22.3-11,38.7-30.8,43.6c-6.7,1.7-12.3,1.2-17.1-1.5l-4.8-2.9c-5.2-3-8.9-8.2-11.2-17.3c-1.6-6.3-2.4-14.3-2.4-24.5
		c0.1-36.1,10.9-61.5,32.8-67c6.5-1.6,12-1.3,16.5,1.5L474.8,151.9z M426.9,231.8c0,5.2,0.7,8.8,1,9.8c2.1,7.5,5,12.7,9,16
		c4.1,1.6,9,1.7,14.6,0.3c19.8-4.9,31-21.3,31-43.6c0-3.2-0.4-6-1.1-8.8c-1.3-5.3-3.7-9.7-7.5-12.8c-4.3-1.7-9.8-2-16.5-0.4
		C437.2,197.2,426.9,216.1,426.9,231.8z"/>
	<path d="M558.8,125.4c-23.4,39.7-38.2,81.1-42.8,117.8l-4.8-2.9c4.4-35.2,18.3-74.9,40.1-113.1l-53.2,13.3l-4.8-2.9l60.8-15.2
		L558.8,125.4z"/>
	<path d="M627.7,113c3.7,2.2,6.3,5.9,7.5,10.8c0.5,1.9,0.7,4.1,0.7,6.5c0,12.1-6.3,21.7-17.5,27.6c3.5,0.6,6.5,1.5,9.1,3.1l4.8,2.9
		c4.4,2.6,7.3,6.9,8.7,12.5c0.7,2.6,1,5.3,1,8.5c0,16.4-12.1,31.1-33.2,36.4c-10.2,2.5-18.3,2-24-1.5l-4.8-2.9
		c-4.2-2.5-7-6.6-8.3-11.7c-0.5-1.9-0.7-4.1-0.7-6.5c0.1-15.5,7.9-28.9,24.2-36.5c-2-0.4-4-1.2-5.6-2.1l-4.8-2.9
		c-3.5-1.9-5.8-5.3-6.9-9.6c-0.5-2.1-0.7-4.3-0.7-6.7c0-14.9,10.3-28.1,26.9-32.2c7.7-1.9,14-1.3,18.6,1.5L627.7,113z M609,161.8
		c-22.2,6.5-33.1,21.8-33.1,39.7c0,2.4,0.3,4.8,0.8,6.9c1,4,3,7.4,6,9.9c5.6,2.1,12.7,2.4,21.6,0.2c20.8-5.2,33-19.8,33-36.1
		c0-3.2-0.4-6-1-8.5c-1.2-4.7-3.2-8.5-6.5-11.2C624.7,160.3,617.7,160,609,161.8z M631.3,127.4c0-2.2-0.3-4.4-0.8-6.3
		c-1-3.9-2.9-7.1-5.5-9.4c-4.1-1.6-9.6-1.9-15.9-0.3c-16.6,4.1-27.1,17.5-27.1,32.4c0,2.2,0.2,4.4,0.7,6.3c0.9,3.5,2.5,6.3,4.9,8.3
		c4.3,1.7,10,2,16.9,0.4C621.4,153.9,631.2,142.7,631.3,127.4z"/>
	<path d="M709.7,91.8c5,3,8.8,9,11,17.9c1.7,6.7,2.7,15.2,2.6,25.2c0,41.1-9.9,60.3-32,65.8c-6.5,1.6-12.2,1.2-16.5-1.5l-4.8-2.9
		c-3.1-1.8-5.7-4.9-7.7-9.1l4.6,2.8c1.7,3.1,3.5,5.7,5.8,7.5c3.9,1.6,8.6,1.6,13.8,0.3c21.5-5.4,31.7-23.7,32.2-62.7
		c-4.2,10.7-12.8,20.3-26.5,23.7c-7.9,2-14.2,1.3-18.8-1.5l-4.8-2.9c-5-3-8.2-8.4-9.8-14.5c-0.7-2.8-1-5.7-1.1-8.8
		c0-22.3,11.2-38.7,31-43.6c6.3-1.6,11.8-1.3,16.2,1.4L709.7,91.8z M716.9,116.8c0.2-6-0.7-9.5-0.8-9.9c-1.9-7.7-4.9-12.9-8.9-16.4
		c-3.9-1.4-8.4-1.6-13.8-0.3c-19.8,4.9-30.7,21.4-30.8,43.6c0,3.2,0.3,6.3,1,9.2c1.3,5.1,3.8,9.5,7.4,12.5c4.6,1.8,10,2.2,16.5,0.5
		C707.6,151.2,717,132.4,716.9,116.8z"/>
	<path d="M757.6,174.2c-5.5-3.3-9.5-9.7-11.9-19.2c-1.7-7-2.6-15.7-2.6-26.1c0-38,11.5-57.7,32.8-63.1c7.4-1.8,13.7-1.2,18.3,1.6
		l4.8,2.9c5.3,3.3,9.5,9.6,11.8,19c1.7,6.8,2.6,15.5,2.6,26.1c0,38-11.5,57.7-32.8,63.1c-7.2,1.8-13.6,1.3-18.4-1.5L757.6,174.2z
		 M748,131.8c0,10.4,0.9,19.1,2.6,26.1c2,8.1,5.1,13.8,9.4,17.4c4.6,1.8,9.8,1.8,16.1,0.3c21.2-5.3,32.6-25.1,32.7-63
		c0-10.6-1-19.5-2.7-26.5c-2-7.9-5.1-13.6-9.3-17c-4.6-1.8-9.8-2-15.9-0.5C759.4,73.9,747.9,93.7,748,131.8z"/>
</g>
<g>
	<path d="M81.3,360.3l-4.8-2.9l0-96.4c-5.5,8.6-12.7,16.9-20.5,23.1l-4.8-2.9c10.2-8.1,19.4-20.1,25.4-31.1l4.8,2.9L81.3,360.3z"/>
	<path d="M160.4,238.2c4.2,2.5,7.3,6.9,8.9,13.2c0.7,2.8,1.1,6,1.1,9.8c-0.1,14-7.9,27.4-26.5,42.1c-20.2,15.8-29.3,31.1-32.4,45.3
		l55-13.7l4.8,2.9l-60.6,15.1l-4.8-2.9c2.2-15.2,11.1-32.2,33.4-49.6c18.8-14.7,26.3-28.9,26.3-42.1c0-3.7-0.3-7.2-1-10
		c-1.3-5.1-3.7-8.8-6.7-11.3c-4.4-1.9-9.8-2-15.6-0.6c-15.1,3.8-25.1,13.7-29.9,27.2l-4.6-2.8c4.8-13.5,14.6-23.4,29.7-27.1
		c7-1.7,13.3-1.3,18.1,1.6L160.4,238.2z"/>
	<path d="M237.4,218.7c3.5,2.1,6,5.6,7.2,10.3c0.5,2.1,0.7,4.5,0.8,6.9c0,12.7-6.5,23.8-19.9,30.6c3.6,0.4,6.7,1.3,9.1,2.8l4.8,2.9
		c3.9,2.4,6.2,6.1,7.4,11.2c0.7,2.8,1.1,6,1.1,9.8c0.1,17.5-13.1,30.2-28.9,34.2c-9.5,2.4-16.6,1.9-22.3-1.5l-4.8-2.9
		c-3.1-1.8-5.8-4.5-7.6-8l4.8,2.7c1.4,2.6,3.1,4.8,5.2,6.5c5.2,2.1,11.9,2.2,20,0.2c15.9-4,29-16.7,28.9-34c0-3.7-0.3-7-1-10
		c-1-4-2.8-7.3-5.6-9.6c-5.6-2.1-13.4-2.1-24.2,0.6l-4.8-2.9c21.9-5.5,33-19.2,33-35.6c-0.1-2.6-0.3-4.8-0.8-6.9
		c-0.9-3.7-2.6-6.6-4.9-8.6c-4.1-1.6-9.5-1.7-15.8-0.1c-13.1,3.3-21.9,11.6-26.7,22.1l-4.6-2.8c4.8-10.5,13.4-18.8,26.5-22
		c7.5-1.9,13.7-1.6,18.3,1.2L237.4,218.7z"/>
	<path d="M318.9,270.3l0,30.7l-4.8-2.9l0.1-26.6l-44.8,11.2l-4.8-2.9l49.7-88.8l4.8,2.9l0,72.4l11.6-2.9l4.8,2.9L318.9,270.3z
		 M314.3,202.5l-42.2,75.5l42-10.5L314.3,202.5z"/>
	<path d="M402.5,221.2c4.4,2.6,7.3,6.9,8.7,12.5c0.8,3.2,1.1,6.6,1.1,10.3c0.1,20.4-11.9,38.1-31.5,43c-8.4,2.1-15.5,1.3-20.8-1.9
		l-4.6-2.8c-3.5-2.1-6.3-5.3-7.9-9.2l4.6,2.8c1.4,3.2,3.3,5.7,5.6,7.7c4.9,1.9,11.2,2.2,18.3,0.4c19.4-4.8,31.4-22.4,31.5-42.8
		c0-3.7-0.5-7.1-1.2-10.1c-1.2-4.7-3.2-8.5-6.3-11.3c-6.8-2.6-16.3-1.1-20.5-0.1c-10.7,2.7-21.5,8.3-22.2,8.7l-4.8-2.9l5.6-45.5
		l46.8-11.7l4.6,2.8l-46.8,11.7l-4.7,40.2c4.2-2,10.6-4.5,16.9-6.1c7-1.7,15.4-3.1,22.6,1.2L402.5,221.2z"/>
	<path d="M484.8,158.1c3.1,1.8,5.7,4.9,7.8,9l-4.8-2.9c-1.5-3.2-3.5-5.7-5.6-7.4c-4.1-1.6-8.8-1.7-14.1-0.4
		c-21.2,5.3-32,29.2-33,63.3c4.5-11,13.6-20.9,27.2-24.3c7.9-2,14.2-1.1,19,1.8l4.6,2.8c5,2.8,8.3,8,9.8,14.1c0.7,3,1,6.1,1,9.2
		c0,22.3-11,38.7-30.8,43.6c-6.7,1.7-12.3,1.2-17.1-1.5l-4.8-2.9c-5.2-3-8.9-8.2-11.2-17.3c-1.6-6.3-2.4-14.3-2.4-24.5
		c0.1-36.1,10.9-61.5,32.8-67c6.5-1.6,12-1.3,16.5,1.5L484.8,158.1z M436.8,238c0,5.2,0.7,8.8,1,9.8c2.1,7.5,5,12.7,9,16
		c4.1,1.6,9,1.7,14.6,0.3c19.8-4.9,31-21.3,31-43.6c0-3.2-0.4-6-1.1-8.8c-1.3-5.3-3.7-9.7-7.5-12.8c-4.3-1.7-9.8-2-16.5-0.4
		C447.1,203.4,436.8,222.3,436.8,238z"/>
	<path d="M568.8,131.6c-23.4,39.7-38.2,81.1-42.8,117.8l-4.8-2.9c4.4-35.2,18.3-74.9,40.1-113.1L508,146.7l-4.8-2.9l60.8-15.2
		L568.8,131.6z"/>
	<path d="M637.7,119.2c3.7,2.2,6.3,5.9,7.5,10.8c0.5,1.9,0.7,4.1,0.7,6.5c0,12.1-6.3,21.7-17.5,27.6c3.5,0.6,6.5,1.5,9.1,3.1
		l4.8,2.9c4.4,2.6,7.3,6.9,8.7,12.5c0.7,2.6,1,5.3,1,8.5c0,16.4-12.1,31.1-33.2,36.4c-10.2,2.5-18.3,2-24-1.5l-4.8-2.9
		c-4.2-2.5-7-6.6-8.3-11.7c-0.5-1.9-0.7-4.1-0.7-6.5c0.1-15.5,7.9-28.9,24.2-36.5c-2-0.4-4-1.2-5.6-2.1l-4.8-2.9
		c-3.5-1.9-5.8-5.3-6.9-9.6c-0.5-2.1-0.7-4.3-0.7-6.7c0-14.9,10.3-28.1,26.9-32.2c7.7-1.9,14-1.3,18.6,1.5L637.7,119.2z M619,168
		c-22.2,6.5-33.1,21.8-33.1,39.7c0,2.4,0.3,4.8,0.8,6.9c1,4,3,7.4,6,9.9c5.6,2.1,12.7,2.4,21.6,0.2c20.8-5.2,33-19.8,33-36.1
		c0-3.2-0.4-6-1-8.5c-1.2-4.7-3.2-8.5-6.5-11.2C634.6,166.5,627.6,166.2,619,168z M641.3,133.6c0-2.2-0.3-4.4-0.8-6.3
		c-1-3.9-2.9-7.1-5.5-9.4c-4.1-1.6-9.6-1.9-15.9-0.3c-16.6,4.1-27.1,17.5-27.1,32.4c0,2.2,0.2,4.4,0.7,6.3c0.9,3.5,2.5,6.3,4.9,8.3
		c4.3,1.7,10,2,16.9,0.4C631.3,160.1,641.2,148.9,641.3,133.6z"/>
	<path d="M719.6,98c5,3,8.8,9,11,17.9c1.7,6.7,2.7,15.2,2.6,25.2c0,41.1-9.9,60.3-32,65.8c-6.5,1.6-12.2,1.2-16.5-1.5l-4.8-2.9
		c-3.1-1.8-5.7-4.9-7.7-9.1l4.6,2.8c1.7,3.1,3.5,5.6,5.8,7.5c3.9,1.6,8.6,1.6,13.8,0.3c21.5-5.4,31.7-23.7,32.2-62.7
		c-4.2,10.7-12.8,20.3-26.5,23.7c-7.9,2-14.2,1.3-18.8-1.5l-4.8-2.9c-5-3-8.2-8.4-9.8-14.5c-0.7-2.8-1-5.7-1.1-8.8
		c0-22.3,11.2-38.7,31-43.6c6.3-1.6,11.8-1.3,16.2,1.4L719.6,98z M726.8,123c0.2-6-0.7-9.5-0.8-9.9c-1.9-7.7-4.9-12.9-8.9-16.4
		c-3.9-1.4-8.4-1.6-13.8-0.3c-19.8,4.9-30.7,21.4-30.8,43.6c0,3.2,0.3,6.3,1,9.2c1.3,5.1,3.8,9.5,7.4,12.5c4.6,1.8,10,2.2,16.5,0.5
		C717.5,157.4,727,138.6,726.8,123z"/>
	<path d="M767.5,180.4c-5.5-3.3-9.5-9.7-11.9-19.2c-1.7-7-2.6-15.7-2.6-26.1c0-38,11.5-57.7,32.8-63.1c7.4-1.8,13.7-1.2,18.3,1.6
		l4.8,2.9c5.3,3.3,9.5,9.5,11.8,19c1.7,6.8,2.6,15.5,2.6,26.1c0,38-11.5,57.7-32.8,63.1c-7.2,1.8-13.6,1.3-18.4-1.5L767.5,180.4z
		 M757.9,138c0,10.4,0.9,19.1,2.6,26.1c2,8.1,5.1,13.8,9.4,17.4c4.6,1.8,9.8,1.8,16.1,0.3c21.2-5.3,32.6-25.1,32.7-63
		c0-10.6-1-19.5-2.7-26.5c-2-7.9-5.1-13.6-9.3-17c-4.6-1.8-9.8-2-15.9-0.5C769.3,80.1,757.9,99.9,757.9,138z"/>
</g>
</svg>
