<svg width="100" height="130" xmlns="http://www.w3.org/2000/svg">

 <g>
  <title>background</title>
  <rect fill="none" id="canvas_background" height="132" width="102" y="-1" x="-1"/>
 </g>
 <g>
  <title>Layer 1</title>
  <g id="svg_1">
   <path fill='#0000ff' id="svg_2" d="m67.8,10.9c3.1,1.8 5.7,4.9 7.8,9l-4.8,-2.9c-1.5,-3.2 -3.5,-5.6 -5.6,-7.4c-4.1,-1.6 -8.8,-1.7 -14.1,-0.4c-21.2,5.3 -32,29.2 -33,63.3c4.5,-11 13.6,-20.9 27.2,-24.3c7.9,-2 14.2,-1.1 19,1.8l4.6,2.8c5,2.8 8.3,8 9.8,14.1c0.7,3 1,6.1 1,9.2c0,22.3 -11,38.7 -30.8,43.6c-6.7,1.7 -12.3,1.2 -17.1,-1.5l-4.8,-2.9c-5.2,-3 -8.9,-8.2 -11.2,-17.3c-1.6,-6.3 -2.4,-14.3 -2.4,-24.5c0.1,-36.1 10.9,-61.5 32.8,-67c6.5,-1.6 12,-1.3 16.5,1.5l5.1,2.9zm-47.9,79.9c0,5.2 0.7,8.8 1,9.8c2.1,7.5 5,12.7 9,16c4.1,1.6 9,1.7 14.6,0.3c19.8,-4.9 31,-21.3 31,-43.6c0,-3.2 -0.4,-6 -1.1,-8.8c-1.3,-5.3 -3.7,-9.7 -7.5,-12.8c-4.3,-1.7 -9.8,-2 -16.5,-0.4c-20.2,4.9 -30.5,23.8 -30.5,39.5z"/>
  </g>
  <g id="svg_3">
   <path fill='#0000ff' id="svg_4" d="m77.8,17.1c3.1,1.8 5.7,4.9 7.8,9l-4.8,-2.9c-1.5,-3.2 -3.5,-5.7 -5.6,-7.4c-4.1,-1.6 -8.8,-1.7 -14.1,-0.4c-21.2,5.3 -32,29.2 -33,63.3c4.5,-11 13.6,-20.9 27.2,-24.3c7.9,-2 14.2,-1.1 19,1.8l4.6,2.8c5,2.8 8.3,8 9.8,14.1c0.7,3 1,6.1 1,9.2c0,22.3 -11,38.7 -30.8,43.6c-6.7,1.7 -12.3,1.2 -17.1,-1.5l-4.8,-2.9c-5.2,-3 -8.9,-8.2 -11.2,-17.3c-1.6,-6.3 -2.4,-14.3 -2.4,-24.5c0.1,-36.1 10.9,-61.5 32.8,-67c6.5,-1.6 12,-1.3 16.5,1.5l5.1,2.9zm-48,79.9c0,5.2 0.7,8.8 1,9.8c2.1,7.5 5,12.7 9,16c4.1,1.6 9,1.7 14.6,0.3c19.8,-4.9 31,-21.3 31,-43.6c0,-3.2 -0.4,-6 -1.1,-8.8c-1.3,-5.3 -3.7,-9.7 -7.5,-12.8c-4.3,-1.7 -9.8,-2 -16.5,-0.4c-20.2,4.9 -30.5,23.8 -30.5,39.5z"/>
  </g>
 </g>
</svg>