<svg width="100" height="130" xmlns="http://www.w3.org/2000/svg">

 <g>
  <title>background</title>
  <rect fill="none" id="canvas_background" height="132" width="102" y="-1" x="-1"/>
 </g>
 <g>
  <title>Layer 1</title>
  <g id="svg_1">
   <path fill='#0000ff' id="svg_2" d="m65.1,9.107533c3.5,2.1 6,5.6 7.2,10.3c0.5,2.1 0.7,4.5 0.8,6.9c0,12.7 -6.5,23.8 -19.9,30.6c3.6,0.4 6.7,1.3 9.1,2.8l4.8,2.9c3.9,2.4 6.2,6.1 7.4,11.2c0.7,2.8 1.1,6 1.1,9.8c0.1,17.5 -13.1,30.2 -28.9,34.2c-9.5,2.4 -16.6,1.9 -22.3,-1.5l-4.8,-2.9c-3.1,-1.8 -5.8,-4.5 -7.6,-8l4.8,2.7c1.4,2.6 3.1,4.8 5.2,6.5c5.2,2.1 11.9,2.2 20,0.2c15.9,-4 29,-16.7 28.9,-34c0,-3.7 -0.3,-7 -1,-10c-1,-4 -2.8,-7.3 -5.6,-9.6c-5.6,-2.1 -13.4,-2.1 -24.2,0.6l-4.8,-2.9c21.9,-5.5 33,-19.2 33,-35.6c-0.1,-2.6 -0.3,-4.8 -0.8,-6.9c-0.9,-3.7 -2.6,-6.6 -4.9,-8.6c-4.1,-1.6 -9.5,-1.7 -15.8,-0.1c-13.1,3.3 -21.9,11.6 -26.7,22.1l-4.6,-2.8c4.8,-10.5 13.4,-18.8 26.5,-22c7.5,-1.9 13.7,-1.6 18.3,1.2l4.8,2.9z"/>
  </g>
  <g id="svg_3">
   <path fill='#0000ff' id="svg_4" d="m75.1,15.307533c3.5,2.1 6,5.6 7.2,10.3c0.5,2.1 0.7,4.5 0.8,6.9c0,12.7 -6.5,23.8 -19.9,30.6c3.6,0.4 6.7,1.3 9.1,2.8l4.8,2.9c3.9,2.4 6.2,6.1 7.4,11.2c0.7,2.8 1.1,6 1.1,9.8c0.1,17.5 -13.1,30.2 -28.9,34.2c-9.5,2.4 -16.6,1.9 -22.3,-1.5l-4.8,-2.9c-3.1,-1.8 -5.8,-4.5 -7.6,-8l4.8,2.7c1.4,2.6 3.1,4.8 5.2,6.5c5.2,2.1 11.9,2.2 20,0.2c15.9,-4 29,-16.7 28.9,-34c0,-3.7 -0.3,-7 -1,-10c-1,-4 -2.8,-7.3 -5.6,-9.6c-5.6,-2.1 -13.4,-2.1 -24.2,0.6l-4.8,-2.9c21.9,-5.5 33,-19.2 33,-35.6c-0.1,-2.6 -0.3,-4.8 -0.8,-6.9c-0.9,-3.7 -2.6,-6.6 -4.9,-8.6c-4.1,-1.6 -9.5,-1.7 -15.8,-0.1c-13.1,3.3 -21.9,11.6 -26.7,22.1l-4.6,-2.8c4.8,-10.5 13.4,-18.8 26.5,-22c7.5,-1.9 13.7,-1.6 18.3,1.2l4.8,2.9z"/>
  </g>
 </g>
</svg>