<svg width="100" height="130" xmlns="http://www.w3.org/2000/svg">

 <g>
  <title>background</title>
  <rect fill="none" id="canvas_background" height="132" width="102" y="-1" x="-1"/>
 </g>
 <g>
  <title>Layer 1</title>
  <g id="svg_1">
   <path fill='#0000ff' id="svg_2" d="m65.599998,8.307043c4.2,2.5 7.3,6.9 8.9,13.2c0.7,2.8 1.1,6 1.1,9.8c-0.1,14 -7.9,27.4 -26.5,42.1c-20.2,15.8 -29.3,31.1 -32.4,45.3l55,-13.7l4.8,2.9l-60.6,15.1l-4.8,-2.9c2.2,-15.2 11.1,-32.2 33.4,-49.6c18.8,-14.7 26.3,-28.9 26.3,-42.1c0,-3.7 -0.3,-7.2 -1,-10c-1.3,-5.1 -3.7,-8.8 -6.7,-11.3c-4.4,-1.9 -9.8,-2 -15.6,-0.6c-15.1,3.8 -25.1,13.7 -29.9,27.2l-4.6,-2.8c4.8,-13.5 14.6,-23.4 29.7,-27.1c7,-1.7 13.3,-1.3 18.1,1.6l4.8,2.9z"/>
  </g>
  <g id="svg_3">
   <path fill='#0000ff' id="svg_4" d="m75.499998,14.507043c4.2,2.5 7.3,6.9 8.9,13.2c0.7,2.8 1.1,6 1.1,9.8c-0.1,14 -7.9,27.4 -26.5,42.1c-20.2,15.8 -29.3,31.1 -32.4,45.3l55,-13.7l4.8,2.9l-60.6,15.1l-4.8,-2.9c2.2,-15.2 11.1,-32.2 33.4,-49.6c18.8,-14.7 26.3,-28.9 26.3,-42.1c0,-3.7 -0.3,-7.2 -1,-10c-1.3,-5.1 -3.7,-8.8 -6.7,-11.3c-4.4,-1.9 -9.8,-2 -15.6,-0.6c-15.1,3.8 -25.1,13.7 -29.9,27.2l-4.6,-2.8c4.8,-13.5 14.6,-23.4 29.7,-27.1c7,-1.7 13.3,-1.3 18.1,1.6l4.8,2.9z"/>
  </g>
 </g>
</svg>