<?xml version="1.0" encoding="iso-8859-1"?>
<!-- Generator: Adobe Illustrator 21.0.1, SVG Export Plug-In . SVG Version: 6.00 Build 0)  -->
<svg version="1.1" id="&#x421;&#x43B;&#x43E;&#x439;_1"
	 xmlns="http://www.w3.org/2000/svg" xmlns:xlink="http://www.w3.org/1999/xlink" x="0px" y="0px" viewBox="0 0 107.113 183.284"
	 style="enable-background:new 0 0 107.113 183.284;" xml:space="preserve">
<path fill='#0000ff' d="M105.633,109.005c-1.799-7.181-5.327-12.564-10.778-15.831L87.8,88.945c-0.952-0.57-1.987-1.087-3.09-1.55
	c0.443,0.605,0.858,1.24,1.253,1.896c-0.395-0.656-0.81-1.292-1.253-1.896c-1.628-0.685-3.418-1.241-5.363-1.643c0,0,0,0,0,0
	c-0.733-0.152-1.48-0.289-2.256-0.394c0.518-0.289,0.998-0.596,1.496-0.895c0,0,0,0,0,0c0.706-0.422,1.398-0.852,2.064-1.296
	c-0.683-0.533-1.394-1.037-2.15-1.49l-2.459-1.474l2.459,1.473c0.756,0.453,1.467,0.957,2.15,1.49
	c13.395-8.926,18.796-21.981,18.67-38.53c-0.066-4.616-0.581-8.847-1.416-12.18c-1.477-5.899-4.236-10.386-8.789-13.333
	l-7.055-4.228c-1.141-0.684-2.405-1.258-3.774-1.74v0c-0.729-0.257-1.494-0.481-2.29-0.679c0.796,0.198,1.561,0.421,2.29,0.678
	c-1.44-2.212-3.26-4.06-5.525-5.527l-7.054-4.228C58.654-0.828,47.37-1.271,30.446,2.966L0.188,10.545L0,167.56l7.054,4.228
	L6.986,14.839l30.515-7.644c14.103-3.532,24.105-3.857,31.286-1.295c1.735,1.576,3.176,3.638,4.285,6.004
	c0.86,0.125,1.681,0.284,2.475,0.467c-0.793-0.183-1.615-0.341-2.474-0.466c0,0,0,0,0-0.001c-6.629-0.966-15.247-0.203-26.273,2.558
	l-30.258,7.579L16.47,81.681l0,0l-0.007,5.725l0,0l-0.091,76.054l0.001,0l-0.008,5.997l7.141-1.788v0l21.757-5.449
	c31.027-7.772,45.51-23.935,45.498-52.273c-0.067-4.617-0.581-8.847-1.481-12.437c-0.712-2.845-1.708-5.395-2.975-7.655
	c-0.771-0.145-1.569-0.26-2.382-0.357c0.813,0.097,1.611,0.211,2.382,0.356c0,0,0,0,0,0c1.683,0.316,3.273,0.737,4.767,1.269
	c3.592,3.461,6.094,8.012,7.507,13.653c0.899,3.59,1.414,7.822,1.48,12.438c0.013,28.338-14.47,44.501-45.498,52.272l-31.027,7.772
	l-0.028-9.589l-7.141,1.788l-0.011,9.599l7.054,4.228l38.208-9.569c31.027-7.772,45.51-23.935,45.498-52.273
	C107.047,116.826,106.532,112.595,105.633,109.005z M74.718,79.628c0.391,0.377,0.767,0.77,1.131,1.174
	C75.485,80.398,75.109,80.005,74.718,79.628c-0.391-0.139-0.79-0.268-1.192-0.393c-5.883,3.931-13.325,7.084-22.592,9.405
	l-27.438,6.872l-0.022-9.862l0,0l-0.008-3.575l0.009,3.575l22.713-5.689c11.397-2.855,20.328-2.896,27.339-0.726c0,0,0,0,0,0
	C73.929,79.36,74.328,79.489,74.718,79.628z M85.14,17.395c2.822,2.563,4.875,6.409,5.967,10.769
	c0.899,3.589,1.093,7.628,1.159,12.244c0.008,16.521-5.132,29.543-18.309,38.546l0,0c-0.07,0.048-0.143,0.094-0.215,0.141
	c0.072-0.047,0.145-0.093,0.215-0.141l-2.51-1.505c-2.886-1.729-6.476-3.011-10.708-3.585c16.024-8.919,22.365-22.77,22.229-40.722
	c-0.066-4.616-0.581-8.847-1.415-12.181c-0.437-1.742-1.001-3.346-1.674-4.838C81.781,16.402,83.536,16.822,85.14,17.395z
	 M79.878,16.122c-0.79-0.117-1.612-0.204-2.456-0.269C78.266,15.918,79.088,16.005,79.878,16.122
	C79.878,16.121,79.878,16.121,79.878,16.122z M79.345,15.03c-0.268-0.529-0.553-1.042-0.858-1.535
	C78.792,13.988,79.077,14.5,79.345,15.03z M53.854,18.691c8.176-2.047,14.966-3.01,20.635-2.965c-0.069-0.238-0.155-0.465-0.229-0.7
	c0.074,0.235,0.16,0.461,0.229,0.699c0,0,0,0,0,0c0.09,0.314,0.186,0.625,0.266,0.944c0.899,3.589,1.093,7.629,1.159,12.244
	c0.01,23.979-10.817,40.589-41.332,48.231l-11.12,2.786l-0.123-53.596L53.854,18.691z M38.207,157.99l-14.72,3.687l0.003,1.057
	l-0.003-1.057l-3.861,0.967l3.861-0.968l-0.179-60.394l39.233-9.827c7.039-1.763,13.132-2.447,18.419-2.206
	c0.49,1.276,0.912,2.619,1.266,4.03c0.899,3.59,1.414,7.822,1.48,12.437C83.718,134.056,69.235,150.219,38.207,157.99z"/>
</svg>
