<?xml version="1.0" encoding="iso-8859-1"?>
<!-- Generator: Adobe Illustrator 21.0.1, SVG Export Plug-In . SVG Version: 6.00 Build 0)  -->
<svg version="1.1" id="&#x421;&#x43B;&#x43E;&#x439;_1"
	 xmlns="http://www.w3.org/2000/svg" xmlns:xlink="http://www.w3.org/1999/xlink" x="0px" y="0px" viewBox="0 0 124.221 191.632"
	 style="enable-background:new 0 0 124.221 191.632;" xml:space="preserve">
<path fill='#0000ff' d="M24.574,34.681l0.021,47.979L17.74,92.995l-0.152-62.35L24.574,34.681z M0,176.861l7.054,4.228V24.139L0,20.104V176.861z
	 M60.748,79.916l-5.981,8.995l55.873,80.17l-6.729-4.043L52.936,91.664l-5.979,8.991l50.104,71.826l-6.73-4.043l-45.206-65.027
	l-20.634,31.031l0.153,57.189l-7.055-4.228l0.129-79.768l0.001-0.001l0.023-14.639l6.855-10.335l0.003,7.31l-0.003-7.311L79.424,0
	l7.054,4.229L24.601,97.282l0.01,22.414l72.4-109.153l7.056,4.228l-41.49,62.394l61.644,88.515l-6.73-4.043L60.748,79.916z
	 M24.601,97.282L24.601,97.282l-2.151,3.235L24.601,97.282z"/>
</svg>
