<svg width="100" height="130" xmlns="http://www.w3.org/2000/svg">

 <g>
  <title>background</title>
  <rect fill="none" id="canvas_background" height="132" width="102" y="-1" x="-1"/>
 </g>
 <g>
  <title>Layer 1</title>
  <g id="svg_1">
   <path fill='#0000ff' id="svg_2" d="m23.6,113.223303c-5.5,-3.3 -9.5,-9.7 -11.9,-19.2c-1.7,-7 -2.6,-15.7 -2.6,-26.1c0,-38 11.5,-57.7 32.8,-63.1c7.4,-1.8 13.7,-1.2 18.3,1.6l4.8,2.9c5.3,3.3 9.5,9.6 11.8,19c1.7,6.8 2.6,15.5 2.6,26.1c0,38 -11.5,57.7 -32.8,63.1c-7.2,1.8 -13.6,1.3 -18.4,-1.5l-4.6,-2.8zm-9.6,-42.4c0,10.4 0.9,19.1 2.6,26.1c2,8.1 5.1,13.8 9.4,17.4c4.6,1.8 9.8,1.8 16.1,0.3c21.2,-5.3 32.6,-25.1 32.7,-63c0,-10.6 -1,-19.5 -2.7,-26.5c-2,-7.9 -5.1,-13.6 -9.3,-17c-4.6,-1.8 -9.8,-2 -15.9,-0.5c-21.5,5.3 -33,25.1 -32.9,63.2z"/>
  </g>
  <g id="svg_3">
   <path fill='#0000ff' id="svg_4" d="m33.5,119.423303c-5.5,-3.3 -9.5,-9.7 -11.9,-19.2c-1.7,-7 -2.6,-15.7 -2.6,-26.1c0,-38 11.5,-57.7 32.8,-63.1c7.4,-1.8 13.7,-1.2 18.3,1.6l4.8,2.9c5.3,3.3 9.5,9.5 11.8,19c1.7,6.8 2.6,15.5 2.6,26.1c0,38 -11.5,57.7 -32.8,63.1c-7.2,1.8 -13.6,1.3 -18.4,-1.5l-4.6,-2.8zm-9.6,-42.4c0,10.4 0.9,19.1 2.6,26.1c2,8.1 5.1,13.8 9.4,17.4c4.6,1.8 9.8,1.8 16.1,0.3c21.2,-5.3 32.6,-25.1 32.7,-63c0,-10.6 -1,-19.5 -2.7,-26.5c-2,-7.9 -5.1,-13.6 -9.3,-17c-4.6,-1.8 -9.8,-2 -15.9,-0.5c-21.5,5.3 -32.9,25.1 -32.9,63.2z"/>
  </g>
 </g>
</svg>