<?xml version="1.0" encoding="utf-8"?>
<!-- Generator: Adobe Illustrator 21.1.0, SVG Export Plug-In . SVG Version: 6.00 Build 0)  -->
<svg version="1.1" id="Слой_1" xmlns="http://www.w3.org/2000/svg" xmlns:xlink="http://www.w3.org/1999/xlink" x="0px" y="0px"
	 viewBox="0 0 291.4 483.1" style="enable-background:new 0 0 291.4 483.1;" xml:space="preserve">
<g>
	<path d="M66.5,483.1c-6.6-3.9-12.6-7.5-19.1-11.3C118.6,317.1,189.6,162.7,260.9,7.9c6.4,3.8,12.5,7.4,18.8,11.1
		c-6.9,15-13.6,29.6-20.4,44.3c-25.9,56.2-51.8,112.4-77.9,168.6c-1.5,3.3-1.3,5.6,0.5,8.7c35.8,60.3,71.5,120.6,107.2,180.9
		c0.9,1.5,1.7,3.1,2.2,4.9c-8.4-4.9-17.2-8.5-22.7-18c-29.9-51.6-60.4-102.7-90.8-154.1c-1-1.7-2-3.4-3.5-5.8
		c-4.5,9.8-8.8,18.7-12.6,27.8c-0.6,1.3,0.5,3.7,1.4,5.3c26,44,52,88,78.1,132c0.9,1.6,1.8,3.1,2.3,5.1c-8.1-5-16.9-8-22.3-17.4
		c-20.4-35.7-41.6-70.9-62.6-106.3c-0.9-1.5-1.9-3-3.3-5.2C125.7,354.4,96.2,418.5,66.5,483.1z"/>
	<path d="M62.2,58.3C70.7,63,79.6,66.2,85,75.6c15.8,28,32.6,55.4,49,83c1,1.7,2.1,3.4,3.6,5.9C162.9,109.4,188,54.8,213.1,0
		c6.4,3.8,12.4,7.3,18.8,11.1c-71,154.8-142,309.4-213.1,464.2c-6.5-3.9-12.5-7.4-18.8-11.1c0.7-1.8,1.4-3.5,2.1-5.1
		c36.2-79.1,72.5-158.3,108.8-237.3c1.6-3.5,1.2-5.9-0.7-9.1C79.1,160.1,48,107.5,16.9,54.9c-0.8-1.4-1.6-2.9-2.1-4.7
		c7.4,4.8,16.1,7,21.2,15.7c26.2,44.8,52.9,89.4,79.4,134.1c0.9,1.6,1.9,3.1,3.4,5.6c3.3-7.2,5.8-14,9.4-20.2
		c3.5-6,2.9-10.7-0.7-16.7c-21.3-35.2-42-70.7-62.9-106.1C63.8,61.2,63,59.7,62.2,58.3z"/>
</g>
</svg>
