<svg width="100" height="130" xmlns="http://www.w3.org/2000/svg">

 <g>
  <title>background</title>
  <rect fill="none" id="canvas_background" height="132" width="102" y="-1" x="-1"/>
 </g>
 <g>
  <title>Layer 1</title>
  <g id="svg_1">
   <path id="svg_2" d="m65.7,9c3.7,2.2 6.3,5.9 7.5,10.8c0.5,1.9 0.7,4.1 0.7,6.5c0,12.1 -6.3,21.7 -17.5,27.6c3.5,0.6 6.5,1.5 9.1,3.1l4.8,2.9c4.4,2.6 7.3,6.9 8.7,12.5c0.7,2.6 1,5.3 1,8.5c0,16.4 -12.1,31.1 -33.2,36.4c-10.2,2.5 -18.3,2 -24,-1.5l-4.8,-2.9c-4.2,-2.5 -7,-6.6 -8.3,-11.7c-0.5,-1.9 -0.7,-4.1 -0.7,-6.5c0.1,-15.5 7.9,-28.9 24.2,-36.5c-2,-0.4 -4,-1.2 -5.6,-2.1l-4.8,-2.9c-3.5,-1.9 -5.8,-5.3 -6.9,-9.6c-0.5,-2.1 -0.7,-4.3 -0.7,-6.7c0,-14.9 10.3,-28.1 26.9,-32.2c7.7,-1.9 14,-1.3 18.6,1.5l5,2.8zm-18.7,48.8c-22.2,6.5 -33.1,21.8 -33.1,39.7c0,2.4 0.3,4.8 0.8,6.9c1,4 3,7.4 6,9.9c5.6,2.1 12.7,2.4 21.6,0.2c20.8,-5.2 33,-19.8 33,-36.1c0,-3.2 -0.4,-6 -1,-8.5c-1.2,-4.7 -3.2,-8.5 -6.5,-11.2c-5.1,-2.4 -12.1,-2.7 -20.8,-0.9zm22.3,-34.4c0,-2.2 -0.3,-4.4 -0.8,-6.3c-1,-3.9 -2.9,-7.1 -5.5,-9.4c-4.1,-1.6 -9.6,-1.9 -15.9,-0.3c-16.6,4.1 -27.1,17.5 -27.1,32.4c0,2.2 0.2,4.4 0.7,6.3c0.9,3.5 2.5,6.3 4.9,8.3c4.3,1.7 10,2 16.9,0.4c16.9,-4.9 26.7,-16.1 26.8,-31.4z"/>
  </g>
  <g id="svg_3">
   <path id="svg_4" d="m75.7,15.2c3.7,2.2 6.3,5.9 7.5,10.8c0.5,1.9 0.7,4.1 0.7,6.5c0,12.1 -6.3,21.7 -17.5,27.6c3.5,0.6 6.5,1.5 9.1,3.1l4.8,2.9c4.4,2.6 7.3,6.9 8.7,12.5c0.7,2.6 1,5.3 1,8.5c0,16.4 -12.1,31.1 -33.2,36.4c-10.2,2.5 -18.3,2 -24,-1.5l-4.8,-2.9c-4.2,-2.5 -7,-6.6 -8.3,-11.7c-0.5,-1.9 -0.7,-4.1 -0.7,-6.5c0.1,-15.5 7.9,-28.9 24.2,-36.5c-2,-0.4 -4,-1.2 -5.6,-2.1l-4.8,-2.9c-3.5,-1.9 -5.8,-5.3 -6.9,-9.6c-0.5,-2.1 -0.7,-4.3 -0.7,-6.7c0,-14.9 10.3,-28.1 26.9,-32.2c7.7,-1.9 14,-1.3 18.6,1.5l5,2.8zm-18.7,48.8c-22.2,6.5 -33.1,21.8 -33.1,39.7c0,2.4 0.3,4.8 0.8,6.9c1,4 3,7.4 6,9.9c5.6,2.1 12.7,2.4 21.6,0.2c20.8,-5.2 33,-19.8 33,-36.1c0,-3.2 -0.4,-6 -1,-8.5c-1.2,-4.7 -3.2,-8.5 -6.5,-11.2c-5.2,-2.4 -12.2,-2.7 -20.8,-0.9zm22.3,-34.4c0,-2.2 -0.3,-4.4 -0.8,-6.3c-1,-3.9 -2.9,-7.1 -5.5,-9.4c-4.1,-1.6 -9.6,-1.9 -15.9,-0.3c-16.6,4.1 -27.1,17.5 -27.1,32.4c0,2.2 0.2,4.4 0.7,6.3c0.9,3.5 2.5,6.3 4.9,8.3c4.3,1.7 10,2 16.9,0.4c16.8,-4.9 26.7,-16.1 26.8,-31.4z"/>
  </g>
 </g>
</svg>