<?xml version="1.0" encoding="iso-8859-1"?>
<!-- Generator: Adobe Illustrator 21.0.1, SVG Export Plug-In . SVG Version: 6.00 Build 0)  -->
<svg version="1.1" id="&#x421;&#x43B;&#x43E;&#x439;_1"
	 xmlns="http://www.w3.org/2000/svg" xmlns:xlink="http://www.w3.org/1999/xlink" x="0px" y="0px" viewBox="0 0 549.344 327.37"
	 style="enable-background:new 0 0 549.344 327.37;" xml:space="preserve">
<g>
	<path d="M323.382,0l7.054,4.227v98.725l-7.054-4.228V0z M371.629,124.841l7.054,4.229V64.524l-7.054-4.036V124.841z
		 M549.344,154.094c0.012,28.338-14.47,44.501-45.498,52.273l-38.208,9.57l-7.054-4.228l0.011-9.599l7.141-1.789l0.028,9.589
		l31.028-7.771c31.028-7.771,45.51-23.934,45.497-52.273c-0.066-4.616-0.581-8.848-1.48-12.437
		c-1.413-5.641-3.915-10.193-7.507-13.653c-1.494-0.533-3.084-0.953-4.767-1.269l0,0c-0.654-0.122-1.336-0.214-2.02-0.302
		c0.684,0.089,1.366,0.18,2.021,0.303c1.267,2.259,2.263,4.809,2.976,7.654c0.899,3.59,1.413,7.821,1.48,12.438
		c0.012,28.337-14.471,44.5-45.498,52.272l-21.757,5.449v0l-7.141,1.789l0.008-5.997l0,0l0.091-76.054l0,0l0.007-5.726l0,0
		l0.071-59.64l30.258-7.579c11.026-2.762,19.644-3.524,26.273-2.559c0,0,0,0,0,0.001c0.826,0.12,1.614,0.272,2.379,0.446
		c-0.764-0.174-1.553-0.326-2.379-0.447c-1.109-2.366-2.55-4.428-4.284-6.003c-7.182-2.562-17.184-2.237-31.287,1.295l-30.515,7.643
		l0.068,156.95l-7.053-4.227l0.187-157.016l30.258-7.578c16.924-4.239,28.208-3.795,35.263,0.433l7.054,4.229
		c2.265,1.466,4.085,3.314,5.525,5.527c-0.693-0.244-1.423-0.457-2.177-0.648c0.754,0.191,1.483,0.404,2.177,0.649l0,0
		c1.369,0.481,2.633,1.055,3.774,1.739l7.055,4.228c4.553,2.948,7.312,7.435,8.789,13.333c0.835,3.333,1.35,7.564,1.416,12.18
		c0.126,16.55-5.275,29.604-18.67,38.531c-0.683-0.534-1.394-1.037-2.15-1.491l-2.891-1.732l2.891,1.733
		c0.756,0.454,1.467,0.957,2.15,1.491c-0.666,0.443-1.358,0.873-2.063,1.296c0,0,0,0,0,0c-0.499,0.298-0.979,0.606-1.497,0.894
		c0.776,0.106,1.523,0.242,2.256,0.395c0,0,0,0,0,0c1.945,0.401,3.735,0.957,5.363,1.642c0.452,0.616,0.874,1.263,1.276,1.933
		c-0.401-0.67-0.823-1.318-1.276-1.934c1.103,0.464,2.139,0.98,3.09,1.55l7.055,4.229c5.451,3.267,8.98,8.651,10.778,15.831
		C548.763,145.247,549.278,149.477,549.344,154.094z M515.758,111.888C515.758,111.888,515.758,111.888,515.758,111.888
		c-7.011-2.171-15.942-2.129-27.338,0.726l-22.713,5.688l-0.01-4.036l0.009,4.036l0.001,0l0.022,9.862l27.438-6.872
		C502.433,118.971,509.875,115.819,515.758,111.888c0.402,0.124,0.801,0.253,1.191,0.392c0.69,0.664,1.333,1.376,1.94,2.123
		c-0.607-0.747-1.25-1.458-1.939-2.123C516.56,112.141,516.161,112.012,515.758,111.888z M522.111,48.774
		c0.673,1.493,1.237,3.098,1.674,4.839c0.835,3.333,1.349,7.564,1.415,12.181c0.136,17.951-6.205,31.803-22.229,40.721
		c4.232,0.575,7.822,1.857,10.708,3.586l2.51,1.505c-0.058,0.039-0.118,0.077-0.177,0.116c0.06-0.038,0.12-0.077,0.177-0.116l0,0
		c13.177-9.003,18.317-22.025,18.31-38.546c-0.067-4.617-0.261-8.656-1.16-12.245c-1.092-4.359-3.145-8.206-5.967-10.769
		C525.767,49.475,524.012,49.055,522.111,48.774z M465.57,58.985l0.123,53.597l11.12-2.786
		c30.515-7.643,41.342-24.252,41.332-48.231c-0.066-4.616-0.26-8.655-1.159-12.245c-0.08-0.319-0.176-0.629-0.266-0.943c0,0,0,0,0,0
		c-0.015-0.054-0.036-0.104-0.051-0.157c0.016,0.053,0.036,0.104,0.051,0.157c-5.669-0.046-12.459,0.917-20.635,2.964L465.57,58.985
		z M525.937,138.37c-0.066-4.616-0.581-8.848-1.48-12.437c-0.354-1.413-0.776-2.755-1.266-4.03
		c-5.287-0.242-11.38,0.443-18.419,2.206l-39.233,9.826l0.179,60.395l-3.559,0.892l3.559-0.891l0.006,1.872l-0.005-1.872
		l14.72-3.688C511.467,182.871,525.95,166.708,525.937,138.37z M356.072,80.759l-0.252,156.758l7.054,4.229l-0.069-156.951
		L356.072,80.759z M339.817,69.368l-0.252,156.757l7.054,4.229l-0.069-156.95L339.817,69.368z M104.067,150.51l-7.055-4.229
		L24.611,255.434l-0.01-22.414l0,0l-0.006-14.621l-6.855,10.334l-0.023,14.641l0,0l-0.128,79.767l7.054,4.229l-0.153-57.19
		l20.634-31.03l45.207,65.026l6.729,4.044l-50.102-71.827l5.979-8.991l50.975,73.373l6.729,4.043L54.767,224.65l5.982-8.995
		l56.743,81.72l6.729,4.042l-61.643-88.513L104.067,150.51z M24.595,218.399l-0.021-47.979l-6.985-4.036l0.151,62.349
		L24.595,218.399z M0,312.6l7.055,4.227v-156.95L0,155.841V312.6z M86.478,139.967l-7.055-4.229L24.595,218.4l0.006,14.621
		L86.478,139.967z M260.396,261.418l6.985,4.245V108.696l-6.985-4.036V261.418z M163.291,114.99l-0.252,156.758l7.045,4.246
		l-0.059-156.968L163.291,114.99z M249.443,99.135l-6.733-4.036l-0.08,49.512l6.824-15.132L249.443,99.135z M244.922,158.747
		l4.538-10.116l-0.007-19.153l-6.824,15.132l-0.031,19.315l0,0l0.031-19.315l-54.615,121.095l-0.052-137.119l-6.733-4.036
		l-0.252,156.759l7.045,4.245v0l0,0l54.576-121.627l-0.141,87.929l7.044,4.245l-0.04-107.47L244.922,158.747z"/>
</g>
</svg>
