<svg width="100" height="130" xmlns="http://www.w3.org/2000/svg">

 <g>
  <title>background</title>
  <rect fill="none" id="canvas_background" height="132" width="102" y="-1" x="-1"/>
 </g>
 <g>
  <title>Layer 1</title>
  <g id="svg_1">
   <path id="svg_2" d="m63.7,8.8c5,3 8.8,9 11,17.9c1.7,6.7 2.7,15.2 2.6,25.2c0,41.1 -9.9,60.3 -32,65.8c-6.5,1.6 -12.2,1.2 -16.5,-1.5l-4.8,-2.9c-3.1,-1.8 -5.7,-4.9 -7.7,-9.1l4.6,2.8c1.7,3.1 3.5,5.7 5.8,7.5c3.9,1.6 8.6,1.6 13.8,0.3c21.5,-5.4 31.7,-23.7 32.2,-62.7c-4.2,10.7 -12.8,20.3 -26.5,23.7c-7.9,2 -14.2,1.3 -18.8,-1.5l-4.8,-2.9c-5,-3 -8.2,-8.4 -9.8,-14.5c-0.7,-2.8 -1,-5.7 -1.1,-8.8c0,-22.3 11.2,-38.7 31,-43.6c6.3,-1.6 11.8,-1.3 16.2,1.4l4.8,2.9zm7.2,25c0.2,-6 -0.7,-9.5 -0.8,-9.9c-1.9,-7.7 -4.9,-12.9 -8.9,-16.4c-3.9,-1.4 -8.4,-1.6 -13.8,-0.3c-19.8,4.9 -30.7,21.4 -30.8,43.6c0,3.2 0.3,6.3 1,9.2c1.3,5.1 3.8,9.5 7.4,12.5c4.6,1.8 10,2.2 16.5,0.5c20.1,-4.8 29.5,-23.6 29.4,-39.2z"/>
  </g>
  <g id="svg_3">
   <path id="svg_4" d="m73.6,15c5,3 8.8,9 11,17.9c1.7,6.7 2.7,15.2 2.6,25.2c0,41.1 -9.9,60.3 -32,65.8c-6.5,1.6 -12.2,1.2 -16.5,-1.5l-4.8,-2.9c-3.1,-1.8 -5.7,-4.9 -7.7,-9.1l4.6,2.8c1.7,3.1 3.5,5.6 5.8,7.5c3.9,1.6 8.6,1.6 13.8,0.3c21.5,-5.4 31.7,-23.7 32.2,-62.7c-4.2,10.7 -12.8,20.3 -26.5,23.7c-7.9,2 -14.2,1.3 -18.8,-1.5l-4.8,-2.9c-5,-3 -8.2,-8.4 -9.8,-14.5c-0.7,-2.8 -1,-5.7 -1.1,-8.8c0,-22.3 11.2,-38.7 31,-43.6c6.3,-1.6 11.8,-1.3 16.2,1.4l4.8,2.9zm7.2,25c0.2,-6 -0.7,-9.5 -0.8,-9.9c-1.9,-7.7 -4.9,-12.9 -8.9,-16.4c-3.9,-1.4 -8.4,-1.6 -13.8,-0.3c-19.8,4.9 -30.7,21.4 -30.8,43.6c0,3.2 0.3,6.3 1,9.2c1.3,5.1 3.8,9.5 7.4,12.5c4.6,1.8 10,2.2 16.5,0.5c20.1,-4.8 29.6,-23.6 29.4,-39.2z"/>
  </g>
 </g>
</svg>